# WaveFront *.obj file (generated by Autodesk ATF)

mtllib FrontLight.mtl

g FrontLight

v -0.003067 0.035722 0.002272
v -0.003076 0.035750 0.002300
v -0.003791 0.035750 0.004500
v -0.003791 0.037000 0.004500
v -0.003067 0.037000 0.002272
v -0.003076 0.035750 0.006700
v -0.003067 0.035722 0.006728
v -0.003067 0.037000 0.006728
v -0.001171 0.034345 0.008105
v -0.001171 0.037000 0.008105
v 0.001171 0.034345 0.008105
v 0.001171 0.037000 0.008105
v 0.003067 0.035722 0.006728
v 0.003067 0.037000 0.006728
v -0.000846 0.036000 0.007105
v 0.000846 0.036000 0.007105
v 0.002216 0.036000 0.006110
v 0.002739 0.036000 0.004500
v 0.002216 0.036000 0.002890
v 0.000846 0.036000 0.001895
v -0.000846 0.036000 0.001895
v -0.002216 0.036000 0.002890
v -0.002739 0.036000 0.004500
v -0.002216 0.036000 0.006110
v 0.000846 0.037000 0.001895
v -0.000846 0.037000 0.001895
v 0.002216 0.037000 0.002890
v 0.002739 0.037000 0.004500
v 0.002216 0.037000 0.006110
v 0.000846 0.037000 0.007105
v -0.002216 0.037000 0.002890
v -0.002739 0.037000 0.004500
v -0.002216 0.037000 0.006110
v -0.000846 0.037000 0.007105
v -0.001171 0.034345 0.000895
v -0.001171 0.037000 0.000895
v 0.001171 0.034345 0.000895
v 0.001171 0.037000 0.000895
v 0.003067 0.035722 0.002272
v 0.003067 0.037000 0.002272
v 0.003076 0.035750 0.002300
v 0.003791 0.037000 0.004500
v 0.003791 0.035750 0.004500
v 0.003076 0.035750 0.006700
v 0.015750 0.035750 0.002300
v 0.015750 0.033450 0.000000
v -0.015750 0.033450 0.000000
v -0.015750 0.035750 0.002300
v 0.015750 0.035750 0.006700
v -0.015750 0.035750 0.006700
v -0.015750 0.033450 0.009000
v 0.015750 0.033450 0.009000
v -0.015750 0.031757 0.000000
v 0.015750 0.031757 0.000000
v -0.015750 0.031757 0.009000
v 0.015750 0.031757 0.009000
vt 0.000000 0.172192 0.000000
vt 0.002952 0.175000 0.000000
vt -0.000000 0.300000 0.000000
vt 0.234274 0.300000 0.000000
vt 0.234274 0.175000 0.000000
vt 0.000000 0.175000 0.000000
vt 0.231322 0.175000 0.000000
vt 0.000000 0.300000 0.000000
vt 0.234274 0.300000 0.000000
vt 0.234274 0.172192 0.000000
vt 0.234274 0.034489 0.000000
vt 0.234274 0.300000 0.000000
vt 0.000000 0.172192 0.000000
vt 0.000000 0.300000 0.000000
vt 0.000000 0.034489 0.000000
vt 0.234274 0.034489 0.000000
vt 0.000000 0.300000 0.000000
vt 0.234274 0.300000 0.000000
vt 0.000000 0.034489 0.000000
vt 0.234274 0.172192 0.000000
vt 0.000000 0.300000 0.000000
vt 0.234274 0.300000 0.000000
vt 0.260511 0.084645 0.000000
vt 0.161004 0.221604 0.000000
vt 0.260511 -0.084645 0.000000
vt 0.161004 -0.221604 0.000000
vt 0.000000 0.273917 0.000000
vt 0.000000 -0.273917 0.000000
vt -0.161004 0.221604 0.000000
vt -0.161004 -0.221604 0.000000
vt -0.260511 0.084645 0.000000
vt -0.260511 -0.084645 0.000000
vt 0.000000 0.200000 0.000000
vt 0.169290 0.200000 0.000000
vt 0.000000 0.300000 0.000000
vt 0.169290 0.300000 0.000000
vt 0.000000 0.200000 0.000000
vt 0.169290 0.200000 0.000000
vt 0.000000 0.300000 0.000000
vt 0.169290 0.300000 0.000000
vt 0.000000 0.200000 0.000000
vt 0.169290 0.200000 0.000000
vt 0.000000 0.300000 0.000000
vt 0.169290 0.300000 0.000000
vt -0.000000 0.200000 0.000000
vt 0.169290 0.200000 0.000000
vt 0.000000 0.300000 0.000000
vt 0.169290 0.300000 0.000000
vt 0.000000 0.200000 0.000000
vt 0.169290 0.200000 0.000000
vt 0.000000 0.300000 0.000000
vt 0.169290 0.300000 0.000000
vt 0.000000 0.200000 0.000000
vt 0.169290 0.200000 0.000000
vt 0.000000 0.300000 0.000000
vt 0.169290 0.300000 0.000000
vt 0.000000 0.200000 0.000000
vt 0.169290 0.200000 0.000000
vt 0.000000 0.300000 0.000000
vt 0.169290 0.300000 0.000000
vt 0.000000 0.200000 0.000000
vt 0.169290 0.200000 0.000000
vt -0.000000 0.300000 0.000000
vt 0.169290 0.300000 0.000000
vt 0.000000 0.200000 0.000000
vt 0.169290 0.200000 0.000000
vt 0.000000 0.300000 0.000000
vt 0.169290 0.300000 0.000000
vt 0.000000 0.200000 0.000000
vt 0.169290 0.200000 0.000000
vt 0.000000 0.300000 0.000000
vt 0.169290 0.300000 0.000000
vt 0.000000 0.034489 0.000000
vt 0.234274 0.172192 0.000000
vt -0.000000 0.300000 0.000000
vt 0.234274 0.300000 0.000000
vt 0.000000 0.034489 0.000000
vt 0.234274 0.034489 0.000000
vt 0.000000 0.300000 0.000000
vt 0.234274 0.300000 0.000000
vt 0.234274 0.034489 0.000000
vt 0.234274 0.300000 0.000000
vt 0.000000 0.172192 0.000000
vt 0.000000 0.300000 0.000000
vt 0.234274 0.172192 0.000000
vt 0.234274 0.300000 0.000000
vt 0.231322 0.175000 0.000000
vt 0.000000 0.300000 0.000000
vt 0.000000 0.175000 0.000000
vt 0.234274 0.175000 0.000000
vt 0.234274 0.300000 0.000000
vt 0.002952 0.175000 0.000000
vt 0.000000 0.300000 0.000000
vt 0.000000 0.172192 0.000000
vt 0.260511 -0.084645 0.000000
vt 0.360511 -0.117137 0.000000
vt 0.260511 0.084645 0.000000
vt 0.360511 0.117137 0.000000
vt 0.222808 0.306669 0.000000
vt 0.222808 -0.306669 0.000000
vt 0.161004 -0.221604 0.000000
vt 0.000000 -0.379063 0.000000
vt 0.000000 -0.273917 0.000000
vt -0.161004 -0.221604 0.000000
vt -0.222808 -0.306669 0.000000
vt -0.260511 -0.084645 0.000000
vt -0.360511 -0.117137 0.000000
vt -0.260511 0.084645 0.000000
vt -0.360511 0.117137 0.000000
vt -0.222808 0.306669 0.000000
vt -0.161004 0.221604 0.000000
vt 0.000000 0.379063 0.000000
vt 0.000000 0.273917 0.000000
vt 0.161004 0.221604 0.000000
vt 0.325269 1.267419 0.000000
vt 0.321298 1.268331 0.000000
vt 0.325269 0.000000 0.000000
vt 0.126557 1.457863 0.000000
vt 0.000000 0.000000 0.000000
vt 0.126557 1.692137 0.000000
vt 0.000000 3.150000 0.000000
vt 0.325269 3.150000 0.000000
vt 0.321298 1.881669 0.000000
vt 0.325269 1.882581 0.000000
vt 0.000000 1.882581 0.000000
vt 0.220000 1.954063 0.000000
vt 0.000000 3.150000 0.000000
vt 0.440000 3.150000 0.000000
vt 0.440000 1.882581 0.000000
vt 0.000000 1.267419 0.000000
vt 0.000000 0.000000 0.000000
vt 0.003971 1.268331 0.000000
vt 0.198712 1.457863 0.000000
vt 0.325269 0.000000 0.000000
vt 0.198712 1.692137 0.000000
vt 0.325269 3.150000 0.000000
vt 0.000000 3.150000 0.000000
vt 0.000000 1.882581 0.000000
vt 0.003971 1.881669 0.000000
vt 0.000000 1.267419 0.000000
vt 0.000000 0.000000 0.000000
vt 0.220000 1.195937 0.000000
vt 0.440000 0.000000 0.000000
vt 0.440000 1.267419 0.000000
vt 0.000000 0.000000 0.000000
vt 0.169259 0.000000 0.000000
vt 0.000000 3.150000 0.000000
vt 0.169259 3.150000 0.000000
vt -0.000000 0.000000 0.000000
vt 0.900000 0.000000 0.000000
vt -0.000000 3.150000 0.000000
vt 0.900000 3.150000 0.000000
vt 0.000000 0.000000 0.000000
vt 0.169259 0.000000 0.000000
vt 0.000000 3.150000 0.000000
vt 0.169259 3.150000 0.000000
vt -0.900000 -0.399259 0.000000
vt 0.000000 -0.399259 0.000000
vt -0.900000 -0.230000 0.000000
vt 0.000000 -0.230000 0.000000
vt -0.670000 0.000000 0.000000
vt -0.230000 0.000000 0.000000
vt 0.399259 0.900000 0.000000
vt 0.230000 0.900000 0.000000
vt 0.399259 0.000000 0.000000
vt 0.230000 0.000000 0.000000
vt -0.000000 0.230000 0.000000
vt -0.000000 0.670000 0.000000
vn -95.105652 0.000000 -30.901699
vn -95.105652 0.000000 -30.901699
vn -95.105652 0.000000 -30.901699
vn -95.105652 0.000000 -30.901699
vn -95.105652 0.000000 -30.901699
vn -95.105652 0.000000 30.901699
vn -95.105652 0.000000 30.901699
vn -95.105652 0.000000 30.901699
vn -95.105652 0.000000 30.901699
vn -95.105652 0.000000 30.901699
vn -58.778525 0.000000 80.901699
vn -58.778525 0.000000 80.901699
vn -58.778525 0.000000 80.901699
vn -58.778525 0.000000 80.901699
vn 0.000000 0.000000 100.000000
vn 0.000000 0.000000 100.000000
vn 0.000000 0.000000 100.000000
vn 0.000000 0.000000 100.000000
vn 58.778525 0.000000 80.901699
vn 58.778525 0.000000 80.901699
vn 58.778525 0.000000 80.901699
vn 58.778525 0.000000 80.901699
vn 0.000000 100.000000 0.000000
vn 0.000000 100.000000 0.000000
vn 0.000000 100.000000 0.000000
vn 0.000000 100.000000 0.000000
vn 0.000000 100.000000 0.000000
vn 0.000000 100.000000 0.000000
vn 0.000000 100.000000 0.000000
vn 0.000000 100.000000 0.000000
vn 0.000000 100.000000 0.000000
vn 0.000000 100.000000 0.000000
vn -0.000000 0.000000 100.000000
vn -0.000000 0.000000 100.000000
vn -0.000000 0.000000 100.000000
vn -0.000000 0.000000 100.000000
vn -58.778525 0.000000 80.901699
vn -58.778525 0.000000 80.901699
vn -58.778525 0.000000 80.901699
vn -58.778525 0.000000 80.901699
vn -95.105652 0.000000 30.901699
vn -95.105652 0.000000 30.901699
vn -95.105652 0.000000 30.901699
vn -95.105652 0.000000 30.901699
vn -95.105652 0.000000 -30.901699
vn -95.105652 0.000000 -30.901699
vn -95.105652 0.000000 -30.901699
vn -95.105652 0.000000 -30.901699
vn -58.778525 0.000000 -80.901699
vn -58.778525 0.000000 -80.901699
vn -58.778525 0.000000 -80.901699
vn -58.778525 0.000000 -80.901699
vn 58.778525 0.000000 80.901699
vn 58.778525 0.000000 80.901699
vn 58.778525 0.000000 80.901699
vn 58.778525 0.000000 80.901699
vn 95.105652 0.000000 30.901699
vn 95.105652 0.000000 30.901699
vn 95.105652 0.000000 30.901699
vn 95.105652 0.000000 30.901699
vn 95.105652 0.000000 -30.901699
vn 95.105652 0.000000 -30.901699
vn 95.105652 0.000000 -30.901699
vn 95.105652 0.000000 -30.901699
vn 58.778525 0.000000 -80.901699
vn 58.778525 0.000000 -80.901699
vn 58.778525 0.000000 -80.901699
vn 58.778525 0.000000 -80.901699
vn 0.000000 0.000000 -100.000000
vn 0.000000 0.000000 -100.000000
vn 0.000000 0.000000 -100.000000
vn 0.000000 0.000000 -100.000000
vn -58.778525 0.000000 -80.901699
vn -58.778525 0.000000 -80.901699
vn -58.778525 0.000000 -80.901699
vn -58.778525 0.000000 -80.901699
vn 0.000000 0.000000 -100.000000
vn 0.000000 0.000000 -100.000000
vn 0.000000 0.000000 -100.000000
vn 0.000000 0.000000 -100.000000
vn 58.778525 0.000000 -80.901699
vn 58.778525 0.000000 -80.901699
vn 58.778525 0.000000 -80.901699
vn 58.778525 0.000000 -80.901699
vn 95.105652 0.000000 -30.901699
vn 95.105652 0.000000 -30.901699
vn 95.105652 0.000000 -30.901699
vn 95.105652 0.000000 -30.901699
vn 95.105652 0.000000 -30.901699
vn 95.105652 0.000000 30.901699
vn 95.105652 0.000000 30.901699
vn 95.105652 0.000000 30.901699
vn 95.105652 0.000000 30.901699
vn 95.105652 0.000000 30.901699
vn 0.000000 100.000000 0.000000
vn 0.000000 100.000000 0.000000
vn 0.000000 100.000000 0.000000
vn 0.000000 100.000000 0.000000
vn 0.000000 100.000000 0.000000
vn 0.000000 100.000000 0.000000
vn 0.000000 100.000000 0.000000
vn 0.000000 100.000000 0.000000
vn 0.000000 100.000000 0.000000
vn 0.000000 100.000000 0.000000
vn 0.000000 100.000000 0.000000
vn 0.000000 100.000000 0.000000
vn 0.000000 100.000000 0.000000
vn 0.000000 100.000000 0.000000
vn 0.000000 100.000000 0.000000
vn 0.000000 100.000000 0.000000
vn 0.000000 100.000000 0.000000
vn 0.000000 100.000000 0.000000
vn 0.000000 100.000000 0.000000
vn 0.000000 100.000000 0.000000
vn 0.000000 70.710678 -70.710678
vn 0.000000 70.710678 -70.710678
vn 0.000000 70.710678 -70.710678
vn 0.000000 70.710678 -70.710678
vn 0.000000 70.710678 -70.710678
vn 0.000000 70.710678 -70.710678
vn 0.000000 70.710678 -70.710678
vn 0.000000 70.710678 -70.710678
vn 0.000000 70.710678 -70.710678
vn 0.000000 70.710678 -70.710678
vn 0.000000 100.000000 0.000000
vn 0.000000 100.000000 0.000000
vn 0.000000 100.000000 0.000000
vn 0.000000 100.000000 0.000000
vn 0.000000 100.000000 0.000000
vn 0.000000 70.710678 70.710678
vn 0.000000 70.710678 70.710678
vn 0.000000 70.710678 70.710678
vn 0.000000 70.710678 70.710678
vn 0.000000 70.710678 70.710678
vn 0.000000 70.710678 70.710678
vn 0.000000 70.710678 70.710678
vn 0.000000 70.710678 70.710678
vn 0.000000 70.710678 70.710678
vn 0.000000 70.710678 70.710678
vn 0.000000 100.000000 0.000000
vn 0.000000 100.000000 0.000000
vn 0.000000 100.000000 0.000000
vn 0.000000 100.000000 0.000000
vn 0.000000 100.000000 0.000000
vn 0.000000 0.000000 -100.000000
vn 0.000000 0.000000 -100.000000
vn 0.000000 0.000000 -100.000000
vn 0.000000 0.000000 -100.000000
vn 0.000000 -100.000000 0.000000
vn 0.000000 -100.000000 0.000000
vn 0.000000 -100.000000 0.000000
vn 0.000000 -100.000000 0.000000
vn 0.000000 0.000000 100.000000
vn 0.000000 0.000000 100.000000
vn 0.000000 0.000000 100.000000
vn 0.000000 0.000000 100.000000
vn 100.000000 0.000000 0.000000
vn 100.000000 0.000000 0.000000
vn 100.000000 0.000000 0.000000
vn 100.000000 0.000000 0.000000
vn 100.000000 0.000000 0.000000
vn 100.000000 0.000000 0.000000
vn -100.000000 0.000000 0.000000
vn -100.000000 0.000000 0.000000
vn -100.000000 0.000000 0.000000
vn -100.000000 0.000000 0.000000
vn -100.000000 0.000000 0.000000
vn -100.000000 0.000000 0.000000
usemtl Steel_-_Satin
f 1/1/1 2/2/2 5/3/3
f 5/3/3 2/2/2 4/4/4
f 4/4/4 2/2/2 3/5/5
f 3/6/6 6/7/7 4/8/8
f 4/8/8 6/7/7 8/9/9
f 8/9/9 6/7/7 7/10/10
f 9/11/11 10/12/12 7/13/13
f 7/13/13 10/12/12 8/14/14
f 9/15/15 11/16/16 10/17/17
f 10/17/17 11/16/16 12/18/18
f 11/19/19 13/20/20 12/21/21
f 12/21/21 13/20/20 14/22/22
f 16/23/23 17/24/24 15/25/25
f 15/25/25 17/24/24 24/26/26
f 24/26/26 17/24/24 18/27/27
f 24/26/26 18/27/27 23/28/28
f 23/28/28 18/27/27 19/29/29
f 23/28/28 19/29/29 22/30/30
f 22/30/30 19/29/29 20/31/31
f 22/30/30 20/31/31 21/32/32
f 21/33/33 20/34/34 26/35/35
f 26/35/35 20/34/34 25/36/36
f 20/37/37 19/38/38 25/39/39
f 25/39/39 19/38/38 27/40/40
f 19/41/41 18/42/42 27/43/43
f 27/43/43 18/42/42 28/44/44
f 18/45/45 17/46/46 28/47/47
f 28/47/47 17/46/46 29/48/48
f 17/49/49 16/50/50 29/51/51
f 29/51/51 16/50/50 30/52/52
f 22/53/53 21/54/54 31/55/55
f 31/55/55 21/54/54 26/56/56
f 23/57/57 22/58/58 32/59/59
f 32/59/59 22/58/58 31/60/60
f 24/61/61 23/62/62 33/63/63
f 33/63/63 23/62/62 32/64/64
f 15/65/65 24/66/66 34/67/67
f 34/67/67 24/66/66 33/68/68
f 16/69/69 15/70/70 30/71/71
f 30/71/71 15/70/70 34/72/72
f 35/73/73 1/74/74 36/75/75
f 36/75/75 1/74/74 5/76/76
f 37/77/77 35/78/78 38/79/79
f 38/79/79 35/78/78 36/80/80
f 37/81/81 38/82/82 39/83/83
f 39/83/83 38/82/82 40/84/84
f 39/85/85 40/86/86 41/87/87
f 41/87/87 40/86/86 42/88/88
f 41/87/87 42/88/88 43/89/89
f 43/90/90 42/91/91 44/92/92
f 44/92/92 42/91/91 14/93/93
f 44/92/92 14/93/93 13/94/94
f 34/95/95 10/96/96 30/97/97
f 30/97/97 10/96/96 12/98/98
f 30/97/97 12/98/98 14/99/99
f 10/96/96 34/95/95 8/100/100
f 8/100/100 34/95/95 33/101/101
f 8/100/100 33/101/101 4/102/102
f 4/102/102 33/101/101 32/103/103
f 4/102/102 32/103/103 31/104/104
f 4/102/102 31/104/104 5/105/105
f 5/105/105 31/104/104 26/106/106
f 5/105/105 26/106/106 36/107/107
f 36/107/107 26/106/106 25/108/108
f 36/107/107 25/108/108 38/109/109
f 38/109/109 25/108/108 40/110/110
f 40/110/110 25/108/108 27/111/111
f 40/110/110 27/111/111 42/112/112
f 42/112/112 27/111/111 28/113/113
f 42/112/112 28/113/113 29/114/114
f 42/112/112 29/114/114 14/99/99
f 14/99/99 29/114/114 30/97/97
f 2/115/115 1/116/116 48/117/117
f 48/117/117 1/116/116 35/118/118
f 48/117/117 35/118/118 47/119/119
f 47/119/119 35/118/118 37/120/120
f 47/119/119 37/120/120 46/121/121
f 46/121/121 37/120/120 45/122/122
f 45/122/122 37/120/120 39/123/123
f 45/122/122 39/123/123 41/124/124
f 41/125/125 43/126/126 45/127/127
f 45/127/127 43/126/126 49/128/128
f 49/128/128 43/126/126 44/129/129
f 6/130/130 50/131/131 7/132/132
f 7/132/132 50/131/131 9/133/133
f 9/133/133 50/131/131 51/134/134
f 9/133/133 51/134/134 11/135/135
f 11/135/135 51/134/134 52/136/136
f 11/135/135 52/136/136 49/137/137
f 44/138/138 13/139/139 49/137/137
f 49/137/137 13/139/139 11/135/135
f 2/140/140 48/141/141 3/142/142
f 3/142/142 48/141/141 50/143/143
f 3/142/142 50/143/143 6/144/144
f 53/145/145 47/146/146 54/147/147
f 54/147/147 47/146/146 46/148/148
f 55/149/149 53/150/150 56/151/151
f 56/151/151 53/150/150 54/152/152
f 51/153/153 55/154/154 52/155/155
f 52/155/155 55/154/154 56/156/156
f 56/157/157 54/158/158 52/159/159
f 52/159/159 54/158/158 46/160/160
f 52/159/159 46/160/160 49/161/161
f 49/161/161 46/160/160 45/162/162
f 55/163/163 51/164/164 53/165/165
f 53/165/165 51/164/164 47/166/166
f 47/166/166 51/164/164 48/167/167
f 48/167/167 51/164/164 50/168/168
# 56 vertices
# 168 texture params
# 168 normals
# 108 facets

# 1 groups
